<svg id="Слой_1" data-name="Слой 1" xmlns="http://www.w3.org/2000/svg" viewBox="0 0 1530.71 449.24"><defs><style>.cls-1,.cls-6{fill:#fff;}.cls-1,.cls-3{fill-rule:evenodd;}.cls-1{opacity:0.5;}.cls-2,.cls-3,.cls-5{fill:#b2d235;}.cls-2{opacity:0.26;}.cls-4{fill:#3a434d;}</style></defs><polygon class="cls-1" points="0 0 1530.71 0 1530.71 451.44 0 451.44 0 0 0 0"/><path class="cls-2" d="M220,438.19H1389.28c18-85-59-94.43-52.67-165.77,3.93-44,2.55-55.11-19.95-80.49-20.56-23.18-65.38-26.42-103.65-17.48-37.88,8.86-52.64,26.38-89.34,33-41.17,7.41-75.31-22-109.8-6.7-36.44,16.17-35.78,79.19-71.65,85.43-24.1,4.19-45.71-2.74-71.63-27.22-77-72.72-145.84-16.66-197.81,28.56-49,42.63-108.32,46-160.43,7.88-28.65-21-36.75-61.34-52.48-93.89C444,168.65,398,141.25,358.37,152.15s-56.13,43.39-76.05,55C245,229,212.52,229.73,175.65,271.62,127.92,325.84,161.43,401.79,220,438.19Z"/><path class="cls-3" d="M207.87,357.56a28.25,28.25,0,1,1-28.25,28.25,28.25,28.25,0,0,1,28.25-28.25Z"/><path class="cls-1" d="M204.85,360.52a21.64,21.64,0,1,1-21.64,21.64,21.63,21.63,0,0,1,21.64-21.64Z"/><path class="cls-4" d="M212.92,389.55a1.34,1.34,0,1,1,1.89,1.9l-5.59,5.6v15.64a26.9,26.9,0,1,0-2.69,0v-6.75l-10.22-10.22a1.33,1.33,0,0,1,0-1.9,1.35,1.35,0,0,1,1.9,0l8.32,8.33V385.81a1.35,1.35,0,0,1,2.69,0v7.44l3.7-3.7Zm-3.7,25.83v21.47a1.35,1.35,0,0,1-2.69,0V415.38a29.58,29.58,0,1,1,2.69,0Z"/><path class="cls-4" d="M259,436.85a1.35,1.35,0,0,1-2.69,0v-7.31H230.91v7.31a1.35,1.35,0,0,1-2.69,0v-7.31h-3.67v-2.69h3.67v-2.19h-3.67V422h3.67v-2.19h-3.67v-2.69H262.7v2.69H259V422h3.67v2.69H259v2.19h3.67v2.69H259v7.31Zm-28.12-17.07V422h25.43v-2.19Zm0,4.88v2.19h25.43v-2.19Z"/><path class="cls-3" d="M474.64,357.56a28.25,28.25,0,1,1-28.25,28.25,28.25,28.25,0,0,1,28.25-28.25Z"/><path class="cls-1" d="M471.62,360.52A21.64,21.64,0,1,1,450,382.16a21.64,21.64,0,0,1,21.64-21.64Z"/><path class="cls-4" d="M479.68,389.55a1.34,1.34,0,0,1,1.9,1.9l-5.6,5.6v15.64a26.91,26.91,0,1,0-2.68,0v-6.75l-10.22-10.22a1.34,1.34,0,1,1,1.89-1.9l8.33,8.33V385.81a1.34,1.34,0,0,1,2.68,0v7.44l3.7-3.7ZM476,415.38v21.47a1.34,1.34,0,0,1-2.68,0V415.38a29.57,29.57,0,1,1,2.68,0Z"/><path class="cls-3" d="M1336.61,357.56a28.25,28.25,0,1,1-28.25,28.25,28.25,28.25,0,0,1,28.25-28.25Z"/><path class="cls-1" d="M1333.58,360.52A21.64,21.64,0,1,1,1312,382.16a21.64,21.64,0,0,1,21.63-21.64Z"/><path class="cls-4" d="M1341.65,389.55a1.34,1.34,0,0,1,1.9,1.9l-5.6,5.6v15.64a26.91,26.91,0,1,0-2.68,0v-6.75L1325,395.72a1.34,1.34,0,1,1,1.9-1.9l8.33,8.33V385.81a1.34,1.34,0,1,1,2.68,0v7.44l3.7-3.7Zm-3.7,25.83v21.47a1.34,1.34,0,0,1-2.68,0V415.38a29.57,29.57,0,1,1,2.68,0Z"/><path class="cls-4" d="M1284.84,417.09H1323v2.69h-3.67V422H1323v2.69h-3.67v2.19H1323v2.69h-3.67v7.31a1.35,1.35,0,0,1-2.69,0v-7.31H1291.2v7.31a1.35,1.35,0,0,1-2.69,0v-7.31h-3.67v-2.69h3.67v-2.19h-3.67V422h3.67v-2.19h-3.67v-2.69Zm31.79,2.69H1291.2V422h25.43v-2.19Zm0,4.88H1291.2v2.19h25.43v-2.19Z"/><polygon class="cls-1" points="384.21 224.71 384.21 216.55 394.14 216.55 394.14 259.91 394.14 268.07 396.51 268.07 396.51 274.92 394.14 274.92 394.14 372.21 396.51 372.21 396.51 379.07 394.14 379.07 394.14 436.85 277.98 436.85 277.98 379.07 275.61 379.07 275.61 372.21 277.98 372.21 277.98 274.92 275.61 274.92 275.61 268.07 277.98 268.07 277.98 259.91 277.98 216.55 287.91 216.55 287.91 224.71 384.21 224.71 384.21 224.71"/><polygon class="cls-3" points="298.73 394.86 343.54 394.86 343.54 431.91 298.73 431.91 298.73 394.86 298.73 394.86"/><polygon class="cls-1" points="297.59 431.91 311.69 431.91 343.54 413.51 343.54 405.37 297.59 431.91"/><path class="cls-5" d="M373.52,268.07a1.35,1.35,0,0,1-2.69,0V224.71a1.35,1.35,0,0,1,2.69,0v43.36Zm-72.23,0a1.35,1.35,0,0,1-2.69,0V224.71a1.35,1.35,0,0,1,2.69,0v43.36Zm12-9.17a1.35,1.35,0,0,1-2.69,0V224.71a1.35,1.35,0,0,1,2.69,0V258.9Zm12-5.43a1.34,1.34,0,0,1-2.68,0V224.71a1.34,1.34,0,0,1,2.68,0v28.76Zm12-5.44a1.34,1.34,0,0,1-2.68,0V224.71a1.34,1.34,0,1,1,2.68,0V248Zm12,5.44a1.35,1.35,0,0,1-2.69,0V224.71a1.35,1.35,0,0,1,2.69,0v28.76Zm12,5.43a1.35,1.35,0,0,1-2.69,0V224.71a1.35,1.35,0,0,1,2.69,0V258.9Z"/><polygon class="cls-3" points="277.98 279.47 394.14 279.47 394.14 283.72 277.98 283.72 277.98 279.47 277.98 279.47"/><polygon class="cls-3" points="277.98 379.07 394.14 379.07 394.14 383.31 277.98 383.31 277.98 379.07 277.98 379.07"/><polygon class="cls-3" points="332.52 291.24 343.54 291.24 343.54 314.78 332.52 314.78 332.52 291.24 332.52 291.24"/><polygon class="cls-3" points="298.73 291.24 309.75 291.24 309.75 314.78 298.73 314.78 298.73 291.24 298.73 291.24"/><polygon class="cls-3" points="366.31 343.05 377.33 343.05 377.33 366.59 366.31 366.59 366.31 343.05 366.31 343.05"/><polygon class="cls-3" points="332.52 343.05 343.54 343.05 343.54 366.59 332.52 366.59 332.52 343.05 332.52 343.05"/><polygon class="cls-3" points="298.73 343.05 309.75 343.05 309.75 366.59 298.73 366.59 298.73 343.05 298.73 343.05"/><polygon class="cls-3" points="366.31 394.86 377.33 394.86 377.33 431.91 366.31 431.91 366.31 394.86 366.31 394.86"/><polygon class="cls-3" points="366.31 291.24 377.33 291.24 377.33 314.78 366.31 314.78 366.31 291.24 366.31 291.24"/><path class="cls-1" d="M300.88,397.4a3,3,0,1,1-6.09,0v-7.9h6.09v7.9Z"/><path class="cls-3" d="M307,397.4a3.05,3.05,0,0,1-6.1,0v-7.9H307v7.9Z"/><path class="cls-1" d="M313.07,397.4a3,3,0,1,1-6.09,0v-7.9h6.09v7.9Z"/><path class="cls-3" d="M319.17,397.4a3.05,3.05,0,0,1-6.1,0v-7.9h6.1v7.9Z"/><path class="cls-1" d="M325.26,397.4a3,3,0,1,1-6.09,0v-7.9h6.09v7.9Z"/><path class="cls-3" d="M331.35,397.4a3,3,0,1,1-6.09,0v-7.9h6.09v7.9Z"/><path class="cls-1" d="M337.45,397.4a3.05,3.05,0,0,1-6.1,0v-7.9h6.1v7.9Z"/><path class="cls-3" d="M343.54,397.4a3,3,0,1,1-6.09,0v-7.9h6.09v7.9Z"/><path class="cls-4" d="M305.64,389.5a1.34,1.34,0,0,1,2.68,0v7.9h0v0h0a1.71,1.71,0,0,0,1.7,1.66h0a1.71,1.71,0,0,0,1.19-.51,1.64,1.64,0,0,0,.49-1.16v0h0v-7.9a1.34,1.34,0,0,1,2.68,0v7.9h0a1.73,1.73,0,0,0,.5,1.21,1.71,1.71,0,0,0,1.21.5h0a1.69,1.69,0,0,0,1.19-.51,1.64,1.64,0,0,0,.49-1.16h0v0h0v-7.9a1.35,1.35,0,0,1,2.69,0v7.89h0a1.69,1.69,0,0,0,.5,1.21h0a1.7,1.7,0,0,0,1.2.49h0a1.71,1.71,0,0,0,1.19-.51,1.64,1.64,0,0,0,.49-1.16h0v0h0v-7.9a1.34,1.34,0,0,1,2.68,0v7.89h0a1.69,1.69,0,0,0,.45,1.16l.05.05a1.71,1.71,0,0,0,1.21.5h0a1.69,1.69,0,0,0,1.19-.51,1.64,1.64,0,0,0,.49-1.16h0v0h0v-7.9a1.35,1.35,0,0,1,2.69,0v7.89h0a1.73,1.73,0,0,0,.44,1.16l.06.05a1.67,1.67,0,0,0,1.2.5h0a1.69,1.69,0,0,0,1.19-.51,1.6,1.6,0,0,0,.49-1.14v-.06h0v-7.9a1.35,1.35,0,0,1,2.69,0v7.9h0a1.69,1.69,0,0,0,.45,1.16l.05.05a1.68,1.68,0,0,0,1.2.5h0a1.71,1.71,0,0,0,1.19-.51,1.64,1.64,0,0,0,.49-1.16h0v0a1.34,1.34,0,0,1,2.68,0v0h0a4.29,4.29,0,0,1-1.29,3.06,4.41,4.41,0,0,1-3,1.29h-.06a4.4,4.4,0,0,1-3.05-1.23,4.4,4.4,0,0,1-3,1.23h-.06a4.4,4.4,0,0,1-3-1.23,4.42,4.42,0,0,1-3,1.23h-.05a4.38,4.38,0,0,1-3.05-1.23,4.42,4.42,0,0,1-3,1.23h-.06a4.41,4.41,0,0,1-3-1.23,4.38,4.38,0,0,1-3,1.23h-.05a4.38,4.38,0,0,1-3.05-1.23,4.42,4.42,0,0,1-3,1.23H310a4.4,4.4,0,0,1-3-1.23,4.38,4.38,0,0,1-3,1.23h-.06a4.4,4.4,0,0,1-3.05-1.23,4.42,4.42,0,0,1-3,1.23h-.05a4.38,4.38,0,0,1-3.1-1.28h0a4.4,4.4,0,0,1-1.28-3.11,1.34,1.34,0,0,1,2.68,0,1.69,1.69,0,0,0,.5,1.21h0a1.72,1.72,0,0,0,1.21.49h0a1.69,1.69,0,0,0,1.19-.51,1.6,1.6,0,0,0,.49-1.14v-.06h0v-7.9a1.35,1.35,0,0,1,2.69,0v7.9h0a1.73,1.73,0,0,0,.44,1.16l.06.05a1.67,1.67,0,0,0,1.2.5h0a1.68,1.68,0,0,0,1.18-.51,1.65,1.65,0,0,0,.5-1.14v-.06h0V389.5Z"/><path class="cls-4" d="M344.88,436.85a1.34,1.34,0,1,1-2.68,0v-3.6H296.13v3.6a1.34,1.34,0,1,1-2.68,0V421h0V389.5a1.34,1.34,0,0,1,1.34-1.34h48.75a1.34,1.34,0,0,1,1.34,1.34v47.35Zm31.11-3.6H363.71v3.6a1.35,1.35,0,0,1-2.69,0V389.5a1.34,1.34,0,0,1,1.35-1.34h15a1.34,1.34,0,0,1,1.34,1.34v47.35a1.34,1.34,0,0,1-2.68,0v-3.6Zm-9.68-2.68H376v-8.28h-9.68v8.28Zm0-11H376V394.86h-9.68V419.6ZM286.57,261.25h-7.25v5.48h7.25v-5.48Zm-7.25-2.69h7.25V217.89h-7.25v40.67Zm-2.69,8.17V216.55A1.36,1.36,0,0,1,278,215.2h9.93a1.35,1.35,0,0,1,1.34,1.35v6.82h93.62v-6.82a1.35,1.35,0,0,1,1.34-1.35h9.93a1.35,1.35,0,0,1,1.34,1.35v50.18h1a1.35,1.35,0,0,1,1.35,1.34v6.85a1.36,1.36,0,0,1-1.35,1.35h-1v94.6h1a1.35,1.35,0,0,1,1.35,1.34v6.86a1.35,1.35,0,0,1-1.35,1.34h-1v56.44a1.34,1.34,0,0,1-2.68,0V380.41H279.32v56.44a1.35,1.35,0,0,1-2.69,0V380.41h-1a1.34,1.34,0,0,1-1.34-1.34v-6.86a1.34,1.34,0,0,1,1.34-1.34h1v-94.6h-1a1.35,1.35,0,0,1-1.34-1.35v-6.85a1.34,1.34,0,0,1,1.34-1.34Zm12.62-40.68v40.68h19.16v-6.82a1.34,1.34,0,0,1,.87-1.26l26.23-11.84a1.32,1.32,0,0,1,1.1,0h0l26.3,11.87a1.34,1.34,0,0,1,.79,1.22h0v6.82h19.16V226.05Zm96.3,32.51h7.25V217.89h-7.25v40.67Zm7.25,2.69h-7.25v5.48h7.25v-5.48ZM361,266.73v-6l-25-11.27-25,11.27v6Zm5.29,36H376V291.24h-9.68v11.47Zm9.68,2.68h-9.68v8.05H376v-8.05Zm1.34,10.73h-15a1.34,1.34,0,0,1-1.35-1.34v-28.9a1.35,1.35,0,0,1,1.35-1.35h15a1.35,1.35,0,0,1,1.34,1.35v28.9a1.34,1.34,0,0,1-1.34,1.34Zm-44.81-13.41h9.68V291.24h-9.68v11.47Zm9.68,2.68h-9.68v8.05h9.68v-8.05Zm1.34,10.73h-15a1.34,1.34,0,0,1-1.34-1.34v-28.9a1.35,1.35,0,0,1,1.34-1.35h15a1.35,1.35,0,0,1,1.34,1.35v28.9a1.34,1.34,0,0,1-1.34,1.34Zm-44.81-13.41h9.68V291.24h-9.68v11.47Zm9.68,2.68h-9.68v8.05h9.68v-8.05Zm1.34,10.73h-15a1.34,1.34,0,0,1-1.34-1.34v-28.9a1.35,1.35,0,0,1,1.34-1.35h15a1.36,1.36,0,0,1,1.35,1.35v28.9a1.35,1.35,0,0,1-1.35,1.34Zm57.36,16.61h-5.85l.53,3.62H377.9l.53-3.62h-5.85a1.34,1.34,0,0,1-1.34-1.34v-.79h-2.79v.79a1.34,1.34,0,0,1-1.34,1.34ZM361,339h-.38a1.34,1.34,0,0,1-1.33-1.15l-.92-6.23a2.28,2.28,0,0,1,0-.26,1.35,1.35,0,0,1,1.34-1.35h6.06v-.79a1.34,1.34,0,0,1,1.34-1.34h5.47a1.34,1.34,0,0,1,1.35,1.34V330H380a1.36,1.36,0,0,1,1.35,1.35,1.15,1.15,0,0,1,0,.26l-.91,6.23a1.35,1.35,0,0,1-1.33,1.15h-.39v27.56a1.35,1.35,0,0,1-1.34,1.35h-15a1.35,1.35,0,0,1-1.35-1.35V339Zm5.29,15.49H376V343.05h-9.68v11.47Zm9.68,2.69h-9.68v8H376v-8Zm-43.47-2.69h9.68V343.05h-9.68v11.47Zm9.68,2.69h-9.68v8h9.68v-8Zm1.34,10.73h-15a1.35,1.35,0,0,1-1.34-1.35V339h-.39a1.34,1.34,0,0,1-1.33-1.15l-.91-6.23a1.15,1.15,0,0,1,0-.26,1.35,1.35,0,0,1,1.34-1.35H332v-.79a1.34,1.34,0,0,1,1.34-1.34h5.81a1.34,1.34,0,0,1,1.34,1.34V330h5.73a1.35,1.35,0,0,1,1.34,1.35,1.15,1.15,0,0,1,0,.26l-.91,6.23a1.34,1.34,0,0,1-1.33,1.15h-.39v27.56a1.35,1.35,0,0,1-1.34,1.35Zm-15-31.59h15.53l.53-3.62h-5.51a1.35,1.35,0,0,1-1.35-1.34v-.79h-3.11v.79a1.35,1.35,0,0,1-1.35,1.34h-5.84l.53,3.62Zm-29.85,28.9h9.68v-8h-9.68v8Zm9.68-10.73V343.05h-9.68v11.47Zm-7.53-23.13a1.34,1.34,0,0,1-1.35,1.34h-5.84l.53,3.62h16.1l.54-3.62H305a1.34,1.34,0,0,1-1.34-1.34v-.79h-2.79v.79ZM293.45,339h-.39a1.35,1.35,0,0,1-1.33-1.15l-.91-6.23a1.15,1.15,0,0,1,0-.26,1.35,1.35,0,0,1,1.35-1.35h6.05v-.79a1.34,1.34,0,0,1,1.34-1.34H305a1.34,1.34,0,0,1,1.34,1.34V330h6.06a1.35,1.35,0,0,1,1.34,1.35,2.28,2.28,0,0,1,0,.26l-.92,6.23a1.34,1.34,0,0,1-1.33,1.15h-.38v27.56a1.36,1.36,0,0,1-1.35,1.35h-15a1.35,1.35,0,0,1-1.34-1.35V339Zm99.35-58.22H279.32v90.06H392.8V280.81Zm-113.48-2.68H392.8v-1.86H279.32v1.86ZM277,273.58H395.17v-4.17H277v4.17Zm0,104.14H395.17v-4.16H277v4.16Zm54.7,52.85v-8.28h-25v8.28Zm0-11V400.11a1.34,1.34,0,1,1,2.68,0V419.6h7.87V390.84H296.13v9.72h2.6v19H304V400.1a1.34,1.34,0,1,1,2.68,0v19.5Zm2.68,2.69v8.28h7.87v-8.28ZM304,430.57v-8.28h-5.27v8.28Z"/><polygon class="cls-1" points="610.09 253.37 683.2 253.37 683.2 436.85 545.16 436.85 545.16 391.28 534.13 391.28 534.13 436.64 529.53 436.64 529.53 391.28 524.79 391.28 524.79 365.35 545.16 365.35 545.16 242.17 610.09 242.17 610.09 253.37 610.09 253.37"/><path class="cls-5" d="M586.94,352.81a1.34,1.34,0,0,1,0,2.68H568.63a1.34,1.34,0,0,1,0-2.68Zm-35.22-78.39a1.35,1.35,0,0,1,0,2.69h-6.56a1.35,1.35,0,0,1,0-2.69Zm0,11.2a1.34,1.34,0,0,1,0,2.68h-6.56a1.34,1.34,0,0,1,0-2.68Zm0,11.2a1.34,1.34,0,1,1,0,2.68h-6.56a1.34,1.34,0,1,1,0-2.68Zm0,11.19a1.35,1.35,0,0,1,0,2.69h-6.56a1.35,1.35,0,0,1,0-2.69Zm0,11.2a1.35,1.35,0,0,1,0,2.69h-6.56a1.35,1.35,0,0,1,0-2.69Zm0,11.2a1.34,1.34,0,0,1,0,2.68h-6.56a1.34,1.34,0,1,1,0-2.68Zm0,11.2a1.34,1.34,0,0,1,0,2.68h-6.56a1.34,1.34,0,0,1,0-2.68Zm0,11.2a1.34,1.34,0,0,1,0,2.68h-6.56a1.34,1.34,0,0,1,0-2.68ZM586.94,252a1.35,1.35,0,0,1,0,2.69H545.16a1.35,1.35,0,0,1,0-2.69Zm0,11.2a1.35,1.35,0,0,1,0,2.69H545.16a1.35,1.35,0,0,1,0-2.69Zm0,11.2a1.35,1.35,0,0,1,0,2.69H568.63a1.35,1.35,0,0,1,0-2.69Zm0,11.2a1.34,1.34,0,0,1,0,2.68H568.63a1.34,1.34,0,1,1,0-2.68Zm0,11.2a1.34,1.34,0,1,1,0,2.68H568.63a1.34,1.34,0,0,1,0-2.68Zm0,11.19a1.35,1.35,0,0,1,0,2.69H568.63a1.35,1.35,0,0,1,0-2.69Zm0,11.2a1.35,1.35,0,0,1,0,2.69H568.63a1.35,1.35,0,0,1,0-2.69Zm0,11.2a1.34,1.34,0,0,1,0,2.68H568.63a1.34,1.34,0,0,1,0-2.68Zm0,11.2a1.34,1.34,0,0,1,0,2.68H568.63a1.34,1.34,0,0,1,0-2.68Z"/><polygon class="cls-3" points="665.37 391.28 665.37 399.21 568.63 399.21 568.63 436.85 555.48 436.85 555.48 399.21 545.16 399.21 545.16 391.28 665.37 391.28 665.37 391.28"/><polygon class="cls-3" points="555.48 280.88 568.63 280.88 568.63 365.35 555.48 365.35 555.48 280.88 555.48 280.88"/><polygon class="cls-3" points="613.85 280.88 665.37 280.88 665.37 386.34 613.85 386.34 613.85 280.88 613.85 280.88"/><polygon class="cls-1" points="613.85 364.91 665.37 335.14 665.37 349.33 613.85 379.1 613.85 364.91 613.85 364.91"/><polygon class="cls-1" points="613.85 383.14 665.37 353.37 665.37 361.52 622.39 386.34 613.85 386.34 613.85 383.14 613.85 383.14"/><path class="cls-4" d="M588.44,404a1.35,1.35,0,0,1,0-2.69h3.65a1.34,1.34,0,0,1,1.34,1.34,1.29,1.29,0,0,1-.06.4l-2.6,10.37a1.34,1.34,0,0,1-2.6-.65l2.2-8.77Zm-13.78,0a1.35,1.35,0,0,1,0-2.69h2.54a1.34,1.34,0,0,1,1.34,1.34v10.44a1.35,1.35,0,0,1-2.69,0V404Zm7.7-2.69h1.92a2.2,2.2,0,0,1,1.56.65h0a2.2,2.2,0,0,1,.65,1.56v8.71a2.2,2.2,0,0,1-2.21,2.2h-1.92a2.19,2.19,0,0,1-1.56-.64l-.1-.12a2.17,2.17,0,0,1-.54-1.44v-8.71a2.19,2.19,0,0,1,.64-1.56h0a2.2,2.2,0,0,1,1.56-.65ZM583.8,404h-1v7.75h1V404Z"/><polygon class="cls-3" points="568.63 391.28 568.63 436.85 555.48 436.85 555.48 399.21 551.72 399.21 551.72 391.28 568.63 391.28 568.63 391.28"/><path class="cls-4" d="M553.06,436.85a1.34,1.34,0,1,1-2.68,0V392.62h-3.87v44.23a1.35,1.35,0,0,1-2.69,0V392.62h-8.35v44.23a1.35,1.35,0,0,1-2.69,0V392.62h-1.91v44.23a1.35,1.35,0,0,1-2.69,0V392.62h-3.39a1.34,1.34,0,0,1-1.34-1.34V365.35a1.34,1.34,0,0,1,1.34-1.35h19V242.17a1.34,1.34,0,0,1,1.34-1.34h64.92a1.34,1.34,0,0,1,1.35,1.34V252H683.2a1.35,1.35,0,0,1,1.34,1.35V436.85a1.34,1.34,0,1,1-2.68,0V254.71H593.43V365.35a1.34,1.34,0,0,1-1.34,1.34h-66v23.25H665.37a1.35,1.35,0,0,1,1.35,1.34v34.16h0v11.4a1.35,1.35,0,0,1-2.69,0V426.8h-52.6v10.05a1.35,1.35,0,0,1-2.69,0V392.62H570v44.23a1.35,1.35,0,0,1-2.69,0v-3.6H555.48v4.94h-2.42v-1.34Zm112.31-49.16H610.08a1.34,1.34,0,0,1-1.34-1.35V275.76a1.34,1.34,0,0,1,1.34-1.34h55.29a1.34,1.34,0,0,1,1.34,1.34V386.34a1.34,1.34,0,0,1-1.34,1.35ZM613.85,385h6V333.09h-6V385Zm8.73,0h30.3V333.09h-30.3V385Zm33,0H664V366.69h-8.47V385ZM664,364V333.09h-8.47V364Zm0-33.59V280.88h-8.47v49.53Zm-11.15-49.53h-30.3v38.33h30.3V280.88Zm-33,0h-6v38.33h6V280.88Zm-6,41v8.51h6V321.9Zm39,0h-30.3v8.51h30.3V321.9ZM550.38,364V275.76a1.34,1.34,0,0,1,1.34-1.34h16.91a1.34,1.34,0,0,1,1.35,1.34V364h20.76V253.37a1.35,1.35,0,0,1,1.35-1.35h16.65v-8.51H546.51V364Zm16.91,0V321.9H555.48V364Zm0-44.79V280.88H555.48v38.33ZM664,424.11v-8.7h-52.6v8.7Zm0-11.39V404h-52.6v8.7Zm0-11.39v-8.71h-52.6v8.71Zm-108.55-2.12v2.12h11.81v-2.12Zm11.81,31.36V404H555.48v26.55Z"/><path class="cls-3" d="M783.35,357.56a28.25,28.25,0,1,1-28.25,28.25,28.25,28.25,0,0,1,28.25-28.25Z"/><path class="cls-1" d="M780.33,360.52a21.64,21.64,0,1,1-21.64,21.64,21.63,21.63,0,0,1,21.64-21.64Z"/><path class="cls-4" d="M782,385.81a1.34,1.34,0,0,1,2.68,0v7.44l3.7-3.7a1.34,1.34,0,0,1,1.9,1.9l-5.6,5.6v15.64a26.89,26.89,0,1,0-2.68,0v-6.75l-10.22-10.22a1.33,1.33,0,0,1,0-1.9,1.35,1.35,0,0,1,1.9,0l8.32,8.33V385.81Zm2.68,29.57v21.46a1.34,1.34,0,1,1-2.68,0V415.38a29.6,29.6,0,1,1,2.68,0Z"/><polygon class="cls-1" points="1271.13 406.03 1273.83 406.03 1273.83 411.08 1271.13 411.08 1271.13 436.85 1135.7 436.85 1135.7 411.08 1133.01 411.08 1133.01 406.03 1135.7 406.03 1135.7 345.1 1133.01 345.1 1133.01 338.25 1135.7 338.25 1135.7 288.29 1133.01 288.29 1133.01 281.44 1135.7 281.44 1135.7 221.76 1145.64 221.76 1145.64 229.92 1218.66 229.92 1224.48 221.76 1230.3 229.92 1261.2 229.92 1261.2 221.76 1271.13 221.76 1271.13 281.44 1273.83 281.44 1273.83 288.29 1271.13 288.29 1271.13 338.25 1273.83 338.25 1273.83 345.1 1271.13 345.1 1271.13 406.03 1271.13 406.03"/><polygon class="cls-3" points="1207.15 367.46 1245.75 367.46 1245.75 398.56 1207.15 398.56 1207.15 367.46 1207.15 367.46"/><polygon class="cls-1" points="1207.15 393.35 1245.79 371.03 1245.79 379.17 1212.24 398.56 1207.15 398.56 1207.15 393.35 1207.15 393.35"/><polygon class="cls-3" points="1261.2 411.08 1263.9 411.08 1263.9 406.03 1269.75 406.03 1269.75 411.08 1267.05 411.08 1267.05 436.85 1261.2 436.85 1261.2 411.08 1261.2 411.08"/><polygon class="cls-3" points="1187.76 406.03 1196.73 427.35 1196.73 436.85 1187.76 436.85 1187.76 406.03 1187.76 406.03"/><polygon class="cls-3" points="1178.78 253.72 1187.76 275.04 1187.76 281.44 1178.78 281.44 1178.78 253.72 1178.78 253.72"/><path class="cls-3" d="M1135.71,292.84h61.55v4.25h-61.55v-4.25Zm116,0h9.5v-4.55h2.7v-6.85h5.85v6.85h-2.7v4.55h4.08v4.25h-4.08v41.16h-5.85V297.09h-7.72l-1.78-4.25Z"/><polygon class="cls-3" points="1135.7 349.64 1261.2 349.64 1261.2 345.1 1263.9 345.1 1263.9 338.25 1269.75 338.25 1269.75 345.1 1267.05 345.1 1267.05 349.64 1271.13 349.64 1271.13 353.89 1267.05 353.89 1267.05 406.03 1261.2 406.03 1261.2 353.89 1135.7 353.89 1135.7 349.64 1135.7 349.64"/><path class="cls-5" d="M1251.28,257.48a1.35,1.35,0,0,1-2.69,0V229.92a1.35,1.35,0,0,1,2.69,0v27.56Zm-96,24a1.35,1.35,0,0,1-2.69,0V229.92a1.35,1.35,0,0,1,2.69,0v51.52Zm11.26-27.72a1.34,1.34,0,1,1-2.68,0v-23.8a1.34,1.34,0,0,1,2.68,0v23.8Zm8.58-23.8a1.35,1.35,0,0,1,2.69,0v23.8a1.35,1.35,0,1,1-2.69,0v-23.8Zm13.95,43.36a1.35,1.35,0,0,1-2.69,0V229.92a1.35,1.35,0,0,1,2.69,0v43.36Zm11.26-15.8a1.34,1.34,0,0,1-2.68,0V229.92a1.34,1.34,0,0,1,2.68,0v27.56Zm11.26-15.81a1.34,1.34,0,1,1-2.68,0V229.92a1.34,1.34,0,1,1,2.68,0v11.75Zm28.4,0a1.35,1.35,0,1,1-2.69,0V229.92a1.35,1.35,0,0,1,2.69,0v11.75Z"/><polygon class="cls-3" points="1163.65 264.75 1173.68 264.75 1173.68 281.44 1163.65 281.44 1163.65 264.75 1163.65 264.75"/><polygon class="cls-3" points="1163.65 307.15 1173.68 307.15 1173.68 338.25 1163.65 338.25 1163.65 307.15 1163.65 307.15"/><polygon class="cls-3" points="1210.95 307.15 1220.97 307.15 1220.97 338.25 1210.95 338.25 1210.95 307.15 1210.95 307.15"/><polygon class="cls-3" points="1231.93 307.15 1241.95 307.15 1241.95 338.25 1231.93 338.25 1231.93 307.15 1231.93 307.15"/><polygon class="cls-3" points="1207.15 421.86 1245.75 421.86 1245.75 426.73 1207.15 426.73 1207.15 421.86 1207.15 421.86"/><path class="cls-3" d="M1223.32,264.18a5.1,5.1,0,1,1,10.2,0V286.8h-10.2V264.18Z"/><path class="cls-3" d="M1160.29,404.69V367.91a12.9,12.9,0,0,1,10.34-5.46,12.11,12.11,0,0,1,3.27.45,14.17,14.17,0,0,1,1.78,1.84v39.95Z"/><path class="cls-4" d="M1137.05,436.84a1.35,1.35,0,1,1-2.69,0V412.43H1133a1.34,1.34,0,0,1-1.34-1.34V406a1.34,1.34,0,0,1,1.34-1.34h1.35V346.44H1133a1.34,1.34,0,0,1-1.34-1.34v-6.85a1.34,1.34,0,0,1,1.34-1.35h1.35V289.64H1133a1.35,1.35,0,0,1-1.34-1.35v-6.85a1.34,1.34,0,0,1,1.34-1.34h1.35V221.76a1.34,1.34,0,0,1,1.34-1.35h9.94a1.34,1.34,0,0,1,1.34,1.35v6.82h71l5.42-7.6a1.34,1.34,0,0,1,1.86-.32,1.18,1.18,0,0,1,.33.34l5.4,7.58h28.88v-6.82a1.34,1.34,0,0,1,1.34-1.35h9.93a1.34,1.34,0,0,1,1.34,1.35V280.1h1.36a1.34,1.34,0,0,1,1.34,1.34v6.85a1.35,1.35,0,0,1-1.34,1.35h-1.36V336.9h1.36a1.34,1.34,0,0,1,1.34,1.35v6.85a1.34,1.34,0,0,1-1.34,1.34h-1.36v58.25h1.36a1.34,1.34,0,0,1,1.34,1.34v5.06a1.34,1.34,0,0,1-1.34,1.34h-1.36v24.41a1.34,1.34,0,1,1-2.68,0V412.43h-7.25v24.41a1.34,1.34,0,1,1-2.68,0V412.43H1189.1v24.41a1.35,1.35,0,1,1-2.69,0V407.37h-4.67v29.47a1.34,1.34,0,1,1-2.68,0v-3.59h-24.73v3.59a1.34,1.34,0,1,1-2.68,0V407.37H1147v29.47a1.35,1.35,0,1,1-2.69,0V412.43h-7.24v24.41Zm27.09-72.06h5.11a1.34,1.34,0,0,1,1.34,1.34v32.44a1.34,1.34,0,0,1-1.34,1.34h-5.11a1.34,1.34,0,0,1-1.34-1.34V366.12a1.34,1.34,0,0,1,1.34-1.34Zm3.77,2.68h-2.42v29.75h2.42V367.46Zm-7.62,37.23h15.4V364.74a14.17,14.17,0,0,0-1.78-1.84,12.11,12.11,0,0,0-3.27-.45,12.9,12.9,0,0,0-10.34,5.46v36.78Zm63-140.51V280.1h4.91v-21a5.09,5.09,0,0,0-4.91,5.09Zm9.58-32.92,27,37.83V231.26Zm-3.64-.49a.91.91,0,0,1-.11-.16l-4.67-6.55-4.67,6.55a1,1,0,0,1-.12.17L1189.1,273.7v6.4H1200a1.34,1.34,0,0,1,1.34,1.34v6.85a1.35,1.35,0,0,1-1.34,1.35h-1.36v3.2a1.34,1.34,0,0,1-1.34,1.34h-8.16V336.9h16.57V301.79a1.34,1.34,0,0,1,1.34-1.34h14a1.34,1.34,0,0,1,1.34,1.34V336.9h4.33V301.79a1.34,1.34,0,0,1,1.35-1.34h14a1.34,1.34,0,0,1,1.34,1.34V336.9h16.57V294.18h-8.16a1.35,1.35,0,0,1-1.35-1.34v-3.2H1249a1.35,1.35,0,0,1-1.34-1.35v-6.85a1.34,1.34,0,0,1,1.34-1.34h10.86v-6.4l-30.6-42.93Zm-82.28.49V280.1h6.29V253.72a1.34,1.34,0,0,1,1.34-1.34h24.17a1.34,1.34,0,0,1,1.34,1.34V280.1h6.29v-6.82a1.35,1.35,0,0,1,.31-.86l29.34-41.16Zm115.56,40.68h7.25V223.1h-7.25v48.84Zm7.25,2.68h-7.25v5.48h7.25v-5.48Zm-132.74-2.68h7.24V223.1h-7.24v48.84Zm7.24,2.68h-7.24v5.48h7.24v-5.48Zm14.08,5.48V259.39a1.34,1.34,0,0,1,1.35-1.34h14a1.34,1.34,0,0,1,1.34,1.34V280.1h2.42v-25H1156v25Zm14,0V264.75h-8.67V280.1Zm60.76,9.54h-17.23a1.35,1.35,0,0,1-1.34-1.35v-6.85a1.34,1.34,0,0,1,1.34-1.34H1218V258.79a6.43,6.43,0,0,1,11-4.52.6.6,0,0,1,.08.08,6.42,6.42,0,0,1,1.81,4.47V280.1h2.17a1.34,1.34,0,0,1,1.34,1.34v6.85a1.35,1.35,0,0,1-1.34,1.35ZM1217.21,287h14.54v-4.17h-14.54V287Zm.83-28.16a1.33,1.33,0,0,1,1.34-1.31l-1.34,1.31Zm-22.12,32.71v-1.86h-58.87v1.86h58.87Zm-9.51,2.68h-49.36V336.9h21.32V301.79a1.34,1.34,0,0,1,1.35-1.34h14a1.34,1.34,0,0,1,1.34,1.34V336.9h11.39V294.18Zm66.63-4.54v1.86h16.75v-1.86H1253Zm16.75,4.54h-7.25V336.9h7.25V294.18Zm-7.24-7.23v-4.17h-12.21V287h12.21Zm2.69-4.17V287h7.25v-4.17h-7.25ZM1183.72,287v-4.17h-49.37V287h49.37Zm2.68-4.17V287h12.21v-4.17H1186.4Zm54.2,45h-8.67v9.08h8.67v-9.08Zm-8.67-2.69h8.67v-18h-8.67v18Zm-12.3,2.69H1211v9.08h8.68v-9.08Zm-8.68-2.69h8.68v-18H1211v18Zm-38.62,2.69h-8.68v9.08h8.68v-9.08Zm-8.68-2.69h8.68v-18h-8.68v18Zm20.07,18.63v-4.17h-49.37v4.17h49.37Zm2.68-4.17v4.17h76.15v-4.17H1186.4Zm78.84,0v4.17h7.25v-4.17h-7.25Zm-128.19,6.85v1.86h132.74v-1.86H1137.05Zm66.16,14.32h42.54a1.34,1.34,0,0,1,1.34,1.34v36.46a1.34,1.34,0,0,1-1.34,1.34h-42.54a1.35,1.35,0,0,1-1.35-1.34V362.1a1.35,1.35,0,0,1,1.35-1.34Zm11.31,36.45v-9.08h-7.37v9.08Zm0-11.77v-18h-7.37v18Zm2.69-18v18h14.54v-18Zm0,20.67v9.08h14.54v-9.08Zm17.22-20.67v18h10v-18Zm0,20.67v9.08h10v-9.08Zm-79.08-24.72a15.62,15.62,0,0,1,5.07-4.36,13.4,13.4,0,0,1,12.55,0,15.59,15.59,0,0,1,5,4.31,1.32,1.32,0,0,1,.37.92v40.41h8V351h-49.36v53.7h18V364.28a1.29,1.29,0,0,1,.33-.87ZM1269.79,351h-7.25v53.7h7.25V351Zm-80.69,0v53.7h70.76V351Zm42.65,74.4v-3.53h-14.54v3.53Zm2.68-3.53v3.53h10v-3.53Zm-31.22-6.7h42.54a1.34,1.34,0,0,1,1.34,1.34v10.23a1.35,1.35,0,0,1-1.34,1.35h-42.54a1.36,1.36,0,0,1-1.35-1.35V416.5a1.35,1.35,0,0,1,1.35-1.34Zm11.31,6.7h-7.37v3.53h7.37v-3.53Zm48-12.12v-2.37H1189.1v2.37h73.45Zm2.69-2.37v2.37h7.25v-2.37h-7.25Zm-86.18,0h-24.73v2.37h24.73v-2.37Zm0,5.06h-24.73v2.73h24.73v-2.73Zm0,5.41h-24.73v2.37h24.73v-2.37Zm0,5.06h-24.73v2.49h24.73V422.9Zm0,5.18h-24.73v2.49h24.73v-2.49Zm-34.77-20.71h-9.94v2.37h9.94v-2.37Z"/><path class="cls-1" d="M1032.25,326.66v52.56h-9.85v37.4h2v20.22H827.66V416.62h2v-58l-11.52,8.68a1.09,1.09,0,0,1-1.52-.21L814,363.63a1.09,1.09,0,0,1,.21-1.52l72.39-54.55L912,326.66h18.78v-6.32h1.73V308h-1.73v-5h1.73v-5h11.08v5h1.72v5h-1.72v12.31h1.72v6.32Z"/><path class="cls-5" d="M932.24,340.92a1.35,1.35,0,0,1-2.69,0v-6.76a1.35,1.35,0,1,1,2.69,0v6.76Z"/><path class="cls-5" d="M919.56,331.37a1.34,1.34,0,1,1-2.68,0v-4.71a1.34,1.34,0,1,1,2.68,0v4.71Z"/><path class="cls-5" d="M1020.93,367.5a1.35,1.35,0,0,1-2.69,0V326.66a1.35,1.35,0,1,1,2.69,0V367.5Z"/><path class="cls-5" d="M1008.26,367.5a1.35,1.35,0,0,1-2.69,0V326.66a1.35,1.35,0,1,1,2.69,0V367.5Z"/><path class="cls-5" d="M995.59,367.5a1.35,1.35,0,0,1-2.69,0V326.66a1.35,1.35,0,1,1,2.69,0V367.5Z"/><path class="cls-5" d="M982.92,367.5a1.35,1.35,0,0,1-2.69,0V326.66a1.35,1.35,0,1,1,2.69,0V367.5Z"/><path class="cls-5" d="M970.25,367.5a1.35,1.35,0,0,1-2.69,0V326.66a1.35,1.35,0,1,1,2.69,0V367.5Z"/><path class="cls-5" d="M957.58,360a1.35,1.35,0,0,1-2.69,0V326.66a1.35,1.35,0,1,1,2.69,0V360Z"/><path class="cls-5" d="M944.91,350.46a1.35,1.35,0,1,1-2.69,0v-16.3a1.35,1.35,0,1,1,2.69,0v16.3Z"/><path class="cls-3" d="M888.55,333.73a9.75,9.75,0,1,1-9.75,9.74,9.74,9.74,0,0,1,9.75-9.74Zm133.85,45.49v6.72H969.29l4.59,10.63L970,401.79H964v35H945.58V416.62h-2V364.06l-18.8-14.17L899,369.29v32l-16.09-38.22,3.69,4.9,12.4-9.33,22.27-16.79,22.27,16.71,11.53,8.76,3.92-5.21,4.57,10.58h68.67v6.53ZM873,431.91H859.5v-5.12H873v5.12Zm40.11,4.93h-8.72V416.62l8.72,20.22Zm-6.7-20.22h7.27V390.36a26.51,26.51,0,0,1,7.48-3.82v22.61h4.1V385.66a24.93,24.93,0,0,1,11,1.3V368c-11.34-6.7-21.15-6.22-29.84,0v48.65Zm-25.55-7.47H851.64V374h29.18v35.17Zm-51.14-50.51,56.94-42.91L916.18,338l-3.66,2.77L890,323.82l-6.38,4.8a10.79,10.79,0,0,0-6.1,4.6l-47.87,36.07V358.64Z"/><path class="cls-4" d="M871.62,426.79v3.78H859.5v-3.78Zm41.74-11.51V374h15.86v41.25Zm11.86-4.79a1.34,1.34,0,0,0,1.34-1.34V379.22a1.35,1.35,0,0,0-1.34-1.35h-7.86a1.35,1.35,0,0,0-1.34,1.35v29.93a1.34,1.34,0,0,0,1.34,1.34Zm-4.1-2.69H918.7V387.45a25.4,25.4,0,0,1,2.42-.91V407.8Zm10.78,7.48V372.69a1.34,1.34,0,0,0-1.34-1.34H912a1.35,1.35,0,0,0-1.35,1.34v42.59h-3V369.47a20.95,20.95,0,0,1,27.15,0v45.81Zm-76.16,5.05a1.35,1.35,0,0,0-1.34,1.35v10.23a1.34,1.34,0,0,0,1.34,1.34H873a1.35,1.35,0,0,0,1.35-1.34V421.68a1.36,1.36,0,0,0-1.35-1.35Zm81.15,0h-31.2V418h31.2v2.37Zm0,5.06h-31.2V423h31.2v2.37Zm0,5.18h-31.2v-2.49h31.2v2.49ZM854.4,407.8h-2.76V374h2.76V407.8ZM874.31,374h5.17V407.8h-5.17V374Zm-2.69,33.82H857.08V374h14.54V407.8Zm-23.74-40.27a1.34,1.34,0,0,0-1.34,1.34v40.28a1.34,1.34,0,0,0,1.34,1.34h32.94a1.34,1.34,0,0,0,1.34-1.34V368.87a1.34,1.34,0,0,0-1.34-1.34H847.88Zm38.69-39.74a11.1,11.1,0,1,0,7.84,3.25,11,11,0,0,0-7.84-3.25Zm11.1,33.54v53.95H831v-56l55.59-41.89,27,20.36L882.76,361a2.35,2.35,0,0,0-.94,1.6,2.41,2.41,0,0,0,.46,1.8l2.62,3.47a2.38,2.38,0,0,0,1.6.94,2.41,2.41,0,0,0,1.8-.46l9.37-7.06Zm46.35-4L922.1,340.78a1.35,1.35,0,0,0-1.64,0l-22.19,16.72-.12.09-11.26,8.49L884.57,363l32.09-24.18,0,0,4.6-3.46L958,363l-2.32,3.07-11-8.32a1.35,1.35,0,0,0-.63-.48Zm-7,10.52a23.64,23.64,0,0,0-31.52,0,1.34,1.34,0,0,0-.5,1.05v46.41h-4.67v-56l20.93-15.77,20.93,15.77v56h-4.67V368.87a1.34,1.34,0,0,0-.5-1.05ZM1008.66,404H957.3V391h51.36v13Zm0,15.73H957.3v-13h51.36v13ZM1030.91,374v3.84h-86V374Zm-9.85,6.53v34.72h-9.71V389.66a1.34,1.34,0,0,0-1.34-1.35H956a1.34,1.34,0,0,0-1.35,1.35v25.62h-9.7V380.56Zm-89-73.87v-2.32h11.84v2.32H932.1Zm10.12-5h-8.4v-2.32h8.4v2.32Zm1.72,20v11.12H932.1V321.69h11.84ZM942.22,319h-8.4v-9.62h8.4V319Zm-31,8.77,7.84,5.91-3.19,2.41-28.44-21.43a1.34,1.34,0,0,0-1.64,0l-56.86,42.84-.11.09-11.26,8.49L815.24,363l71.38-53.79,24.49,18.45.11.08ZM916,328h13.43v6.16a1.34,1.34,0,0,0,1.34,1.34h14.53a1.34,1.34,0,0,0,1.35-1.34V328h84.28v43.35h-86v-10l9.37,7.06a2.41,2.41,0,0,0,1.8.46,2.38,2.38,0,0,0,1.6-.94l2.62-3.47h0a2.43,2.43,0,0,0-.48-3.39l-37.7-28.41,0,0h0L916,328Zm-37.1,14.27a9.75,9.75,0,0,1,15.43-6.66h0a8.4,8.4,0,0,1-15.43,6.66ZM829,436.84V418h66.64v18.88a1.35,1.35,0,1,0,2.69,0V418H903v18.88a1.34,1.34,0,1,0,2.68,0v-3.59h31.2v3.59a1.34,1.34,0,1,0,2.68,0V418h4.67v18.88a1.35,1.35,0,1,0,2.69,0V418h7.68v18.88a1.35,1.35,0,1,0,2.69,0V422.46h51.36v14.38a1.35,1.35,0,1,0,2.69,0V418h11.73v18.88a1.34,1.34,0,1,0,2.68,0V416.62a1.34,1.34,0,0,0-1.34-1.34h-.68V380.56h8.51a1.35,1.35,0,0,0,1.35-1.34V326.66a1.36,1.36,0,0,0-1.35-1.35H946.63v-5a1.34,1.34,0,0,0-1.35-1.34h-.37v-9.62h.37a1.34,1.34,0,0,0,1.35-1.35v-5a1.34,1.34,0,0,0-1.35-1.35h-.37V298a1.35,1.35,0,0,0-1.35-1.35H932.48a1.34,1.34,0,0,0-1.35,1.35v3.66h-.38a1.34,1.34,0,0,0-1.34,1.35v5a1.34,1.34,0,0,0,1.34,1.35h.38V319h-.38a1.34,1.34,0,0,0-1.34,1.34v5h-17l-25-18.81a1.34,1.34,0,0,0-1.63,0L813.43,361a2.35,2.35,0,0,0-.94,1.6,2.42,2.42,0,0,0,.46,1.8l2.62,3.47a2.35,2.35,0,0,0,1.6.94,2.42,2.42,0,0,0,1.8-.46l9.37-7.06v53.95h-.68a1.34,1.34,0,0,0-1.34,1.34v20.22a1.35,1.35,0,1,0,2.69,0Zm93.35-104a1.36,1.36,0,0,0-.24-.24l.24.24Zm-34.67-26.12a1.42,1.42,0,0,0-.24-.25l.24.25Z"/><path class="cls-5" d="M918.7,387.45a25.4,25.4,0,0,1,2.42-.91V407.8H918.7V387.45Z"/><path class="cls-4" d="M150.22,438.19a1.35,1.35,0,0,1,0-2.69h654a1.35,1.35,0,0,1,0,2.69Z"/><path class="cls-4" d="M804.23,438.19a1.35,1.35,0,1,1,0-2.69h605.85a1.35,1.35,0,0,1,0,2.69Z"/><polygon class="cls-5" points="717.6 180.49 717.6 217.27 643.38 217.27 625.04 235.79 625.04 217.27 625.04 180.49 717.6 180.49"/><path class="cls-6" d="M641.68,209.93v-22.1h7.25a5.8,5.8,0,0,1,4.31,1.48,6,6,0,0,1,1.43,4.18v.21a5.81,5.81,0,0,1-1.63,4.41,4.33,4.33,0,0,1-.67.5,3.22,3.22,0,0,1,.65.48c.71.74,1.07,2,1.11,3.95a30.19,30.19,0,0,0,.17,3.05l.06.48c.06.51.13,1,.2,1.33s.16.73.27,1.1l.27.91h-4.49l-.12-.56q-.21-1-.3-1.5c-.07-.38-.12-.69-.14-.93l0-.43c-.09-.87-.14-1.85-.16-2.92a3.84,3.84,0,0,0-.58-2.41,2.39,2.39,0,0,0-1.84-.6h-1.51v9.37Zm5.78-13.11c1.51,0,2.13-.33,2.39-.6a3.7,3.7,0,0,0,.57-2.47,2.31,2.31,0,0,0-.52-1.69,4,4,0,0,0-2.44-.48h-1.54v5.24Z"/><polygon class="cls-6" points="657.49 209.93 657.49 187.83 668.17 187.83 668.17 191.58 661.74 191.58 661.74 196.71 667.79 196.71 667.79 200.46 661.74 200.46 661.74 206.18 668.36 206.18 668.36 209.93 657.49 209.93"/><polygon class="cls-6" points="679.21 209.93 675.14 196.31 675.14 209.93 671.04 209.93 671.04 187.83 676.73 187.83 680.84 201.56 680.84 187.83 684.88 187.83 684.88 209.93 679.21 209.93"/><polygon class="cls-6" points="691.96 209.93 691.96 191.58 687.19 191.58 687.19 187.83 700.97 187.83 700.97 191.58 696.2 191.58 696.2 209.93 691.96 209.93"/><polygon class="cls-5" points="208.52 157.65 208.52 194.43 282.75 194.43 301.09 212.95 301.09 194.43 301.09 157.65 208.52 157.65"/><path class="cls-6" d="M232.31,187.34c-2.36,0-4.08-.59-5.1-1.75s-1.41-2.7-1.41-5v-1.88h4.29v1.32a5.51,5.51,0,0,0,.47,2.93,2,2,0,0,0,1.74.6,2.68,2.68,0,0,0,2-.57,3,3,0,0,0,.56-2.06,2.31,2.31,0,0,0-.51-1.64,11.32,11.32,0,0,0-2.86-1.84,13.56,13.56,0,0,1-4.06-2.94,5.48,5.48,0,0,1-1.24-3.59,6.1,6.1,0,0,1,1.68-4.64,6.83,6.83,0,0,1,4.85-1.57c2.26,0,3.82.49,4.77,1.48a6.21,6.21,0,0,1,1.32,4.39l0,.5v1.29h-4.24v-1.32a3.48,3.48,0,0,0-.44-2.11,1.65,1.65,0,0,0-1.38-.48A2.39,2.39,0,0,0,231,169a2.49,2.49,0,0,0-.47,1.73,2.16,2.16,0,0,0,.42,1.45,9.68,9.68,0,0,0,2.48,1.61,15.43,15.43,0,0,1,4.46,3.11,5.89,5.89,0,0,1,1.17,3.84,6.61,6.61,0,0,1-1.72,4.94A6.91,6.91,0,0,1,232.31,187.34Z"/><path class="cls-6" d="M248.21,187.34c-2.44,0-4.18-.6-5.15-1.76s-1.43-3.08-1.43-5.93V172c0-2.53.51-4.33,1.56-5.5s2.74-1.79,5-1.79,4,.6,5.07,1.78,1.52,3,1.52,5.61v8.68c0,2.24-.53,3.9-1.59,4.95S250.48,187.34,248.21,187.34Zm0-18.85a2,2,0,0,0-1.75.71,5,5,0,0,0-.58,2.87v7.62a6.33,6.33,0,0,0,.53,3.23,2,2,0,0,0,1.8.67,2,2,0,0,0,1.77-.68,4.55,4.55,0,0,0,.57-2.69v-8.67a4.2,4.2,0,0,0-.49-2.51A2.53,2.53,0,0,0,248.21,168.49Z"/><polygon class="cls-6" points="258.02 187.09 258.02 164.99 262.26 164.99 262.26 183.34 268.27 183.34 268.27 187.09 258.02 187.09"/><path class="cls-6" d="M270.6,187.09V165h5.75c2.59,0,4.43.53,5.64,1.62s1.82,2.84,1.82,5.2v8.06c0,2.48-.45,4.26-1.37,5.42a5.46,5.46,0,0,1-4.52,1.8Zm6.41-3.75a2.49,2.49,0,0,0,2-.64,4.59,4.59,0,0,0,.57-2.79v-8a3.66,3.66,0,0,0-.6-2.5,3.13,3.13,0,0,0-2.27-.62h-1.86v14.6Z"/><polygon class="cls-5" points="967.27 253.86 967.27 290.64 967.27 309.16 985.61 290.64 1059.83 290.64 1059.83 253.86 967.27 253.86"/><path class="cls-6" d="M992.26,283.55c-2.36,0-4.07-.59-5.1-1.75s-1.41-2.7-1.41-5l0-.57V275h4.29v1.32a5.42,5.42,0,0,0,.46,2.93,2,2,0,0,0,1.74.6,2.71,2.71,0,0,0,2-.57,3,3,0,0,0,.56-2.06,2.32,2.32,0,0,0-.51-1.63,11.6,11.6,0,0,0-2.87-1.85,13.56,13.56,0,0,1-4.06-2.94,5.47,5.47,0,0,1-1.23-3.59,6.11,6.11,0,0,1,1.67-4.64,6.84,6.84,0,0,1,4.86-1.56c2.25,0,3.81.48,4.76,1.48a6.23,6.23,0,0,1,1.33,4.38l0,.5v1.3h-4.25v-1.33a3.61,3.61,0,0,0-.43-2.11,1.68,1.68,0,0,0-1.39-.48,2.37,2.37,0,0,0-1.7.48,2.43,2.43,0,0,0-.48,1.73,2.13,2.13,0,0,0,.42,1.45,10,10,0,0,0,2.48,1.62,15.33,15.33,0,0,1,4.47,3.1,5.89,5.89,0,0,1,1.17,3.84,6.68,6.68,0,0,1-1.72,4.95A7,7,0,0,1,992.26,283.55Z"/><path class="cls-6" d="M1011.16,283.3l-.95-4.69h-4.39l-1,4.69h-4.21l5-22.1h4.9l5.06,22.1Zm-1.69-8.44L1008,268l-1.43,6.88Z"/><polygon class="cls-6" points="1017.97 283.3 1017.97 261.2 1022.22 261.2 1022.22 279.55 1028.23 279.55 1028.23 283.3 1017.97 283.3"/><polygon class="cls-6" points="1030.48 283.3 1030.48 261.2 1041.16 261.2 1041.16 264.95 1034.72 264.95 1034.72 270.08 1040.78 270.08 1040.78 273.83 1034.72 273.83 1034.72 279.55 1041.35 279.55 1041.35 283.3 1030.48 283.3"/><path class="cls-3" d="M826.82,270.37h-9.61c-8.23-5.11-18.48-16-18.48-28.09a28.1,28.1,0,1,1,56.19,0c0,12.06-10.25,23-18.49,28.09Z"/><path class="cls-1" d="M826.82,270.37H819c-6.67-5.11-15-16-15-28.09,0-15.52,10.18-28.1,22.74-28.1s22.75,12.58,22.75,28.1c0,12.06-8.3,23-15,28.09Z"/><path class="cls-3" d="M826.82,270.37h-5.49c-4.71-5.11-10.57-16-10.57-28.09,0-15.52,7.19-28.1,16.06-28.1s16.06,12.58,16.06,28.1c0,12.06-5.85,23-10.56,28.09Z"/><path class="cls-1" d="M833.57,286.16v8.65a1.68,1.68,0,0,1-1.67,1.67H821.74a1.69,1.69,0,0,1-1.67-1.67v-8.65Z"/><path class="cls-1" d="M820.07,282h13.5a.89.89,0,0,1,.89.89v2.4a.89.89,0,0,1-.89.89h-13.5a.89.89,0,0,1-.89-.89v-2.4a.89.89,0,0,1,.89-.89Z"/><path class="cls-1" d="M817.21,270.37h19.22v3.29a.89.89,0,0,1-.89.89H818.1a.89.89,0,0,1-.89-.89v-3.29Z"/><path class="cls-1" d="M826.82,270.37h-2.23c-1.91-5.11-4.28-16-4.28-28.09,0-15.52,2.91-28.1,6.51-28.1s6.52,12.58,6.52,28.1c0,12.06-2.38,23-4.29,28.09Z"/><path class="cls-3" d="M833.57,286.16v8.65a1.68,1.68,0,0,1-1.67,1.67h-3.62a1.68,1.68,0,0,0,1.67-1.67v-8.65h3.62Z"/><path class="cls-3" d="M830,282h3.62a.89.89,0,0,1,.89.89v2.4a.89.89,0,0,1-.89.89H830a.89.89,0,0,0,.89-.89v-2.4A.89.89,0,0,0,830,282Z"/><path class="cls-3" d="M832.81,270.37h3.62v3.29a.89.89,0,0,1-.89.89h-3.62a.89.89,0,0,0,.89-.89v-3.29Z"/><path class="cls-4" d="M802.14,228.79a1.38,1.38,0,0,0,.7.2,1.35,1.35,0,0,0,1.15-.65,27,27,0,0,1,2.4-3.33,1.34,1.34,0,1,0-2-1.74,31.64,31.64,0,0,0-2.65,3.67A1.35,1.35,0,0,0,802.14,228.79Z"/><path class="cls-4" d="M826.82,212.84a29.23,29.23,0,0,0-10.6,2,1.34,1.34,0,1,0,1,2.5,26.78,26.78,0,0,1,36.38,25c0,10.77-9,21.35-17.52,26.75H817.6c-8.51-5.4-17.53-16-17.53-26.75a27.11,27.11,0,0,1,.61-5.7,1.34,1.34,0,1,0-2.62-.57,29.15,29.15,0,0,0-.67,6.27c0,11.73,9.18,22.81,18.48,28.82h0v2.56a2.24,2.24,0,0,0,.65,1.57h0a2.35,2.35,0,0,0,.47.36l1.51,5.69h0a2.19,2.19,0,0,0-.66,1.57v2.4a2.23,2.23,0,0,0,.66,1.58h0a1.51,1.51,0,0,0,.23.21v7.76a3,3,0,0,0,.88,2.12h0a3,3,0,0,0,2.12.89H831.9a3,3,0,0,0,2-.8.41.41,0,0,0,.1-.09,3,3,0,0,0,.88-2.12v-7.76a1.59,1.59,0,0,0,.24-.2,2.27,2.27,0,0,0,.66-1.58v-2.4a2.26,2.26,0,0,0-.55-1.46l-.11-.12h0l1.51-5.68a2.35,2.35,0,0,0,.47-.36h0a2.27,2.27,0,0,0,.66-1.58V271.1h0c9.3-6,18.48-17.09,18.48-28.82A29.48,29.48,0,0,0,826.82,212.84Zm5.41,82a.34.34,0,0,1-.1.23l0,0a.32.32,0,0,1-.2.06H821.74a.32.32,0,0,1-.23-.09h0a.32.32,0,0,1-.09-.23V287.5h10.81Zm.89-10H820.53v-1.5h12.59Zm-13.27-8.93h2v4.75h-.76Zm4.69,4.75v-4.75h4.56v4.75Zm8,0h-.75v-4.75h2Zm2.55-7.43H818.56v-1.5h16.53Z"/><polygon class="cls-5" points="1340.01 157.65 1340.01 194.43 1265.78 194.43 1247.44 212.95 1247.44 194.43 1247.44 157.65 1340.01 157.65"/><path class="cls-6" d="M1264.08,187.09V165h7.26a5.76,5.76,0,0,1,4.3,1.48,5.93,5.93,0,0,1,1.44,4.18v.21a5.85,5.85,0,0,1-1.63,4.41,4.33,4.33,0,0,1-.67.5,2.89,2.89,0,0,1,.64.48c.72.74,1.08,2,1.12,3.95a27.65,27.65,0,0,0,.17,3.05l0,.48c.07.51.14,1,.21,1.33s.16.73.27,1.1l.27.91H1273l-.12-.56c-.14-.64-.24-1.14-.31-1.5s-.11-.69-.13-.93l0-.43c-.09-.87-.14-1.85-.16-2.92a3.75,3.75,0,0,0-.59-2.41,2.33,2.33,0,0,0-1.84-.6h-1.5v9.37Zm5.79-13.12c1.51,0,2.13-.32,2.38-.59s.57-.91.58-2.47a2.35,2.35,0,0,0-.52-1.69,4,4,0,0,0-2.44-.48h-1.54V174Z"/><polygon class="cls-6" points="1279.9 187.09 1279.9 164.99 1290.58 164.99 1290.58 168.74 1284.15 168.74 1284.15 173.87 1290.2 173.87 1290.2 177.62 1284.15 177.62 1284.15 183.34 1290.77 183.34 1290.77 187.09 1279.9 187.09"/><polygon class="cls-6" points="1301.61 187.09 1297.55 173.47 1297.55 187.09 1293.45 187.09 1293.45 164.99 1299.14 164.99 1303.25 178.71 1303.25 164.99 1307.29 164.99 1307.29 187.09 1301.61 187.09"/><polygon class="cls-6" points="1314.37 187.09 1314.37 168.74 1309.6 168.74 1309.6 164.99 1323.37 164.99 1323.37 168.74 1318.61 168.74 1318.61 187.09 1314.37 187.09"/></svg>