<svg id="Layer_1" data-name="Layer 1" xmlns="http://www.w3.org/2000/svg" viewBox="0 0 50 50"><defs><style>.cls-1{fill:#b2d235;}</style></defs><path class="cls-1" d="M48,21.57l-5.6-3.44V10a1.15,1.15,0,0,0-1.09-1.2h-7a1.15,1.15,0,0,0-1.1,1.2v2.46L26.1,8.11a2.83,2.83,0,0,0-3,0L2,21.59a3.56,3.56,0,0,0-1.11,4.6,2.93,2.93,0,0,0,4.2,1.22L24.63,14.92,45,27.43a2.79,2.79,0,0,0,1.5.43,3,3,0,0,0,2.68-1.71A3.55,3.55,0,0,0,48,21.57Z"/><path class="cls-1" d="M6.4,27.86V44.68H28.9v-9.3a.75.75,0,0,1,.72-.79h4.69a.75.75,0,0,1,.72.79v9.3H43V27.86L24.6,16.65Zm8.37,11.22H12.2a.53.53,0,0,1-.49-.55V35.71h3.06Zm0-4.49H11.71V31.77a.52.52,0,0,1,.49-.54h2.57Zm4.09,3.94a.53.53,0,0,1-.49.55H15.8V35.71h3.06Zm0-3.94H15.8V31.23h2.57a.52.52,0,0,1,.49.54Z"/></svg>